<?xml version="1.0" encoding="utf-8"?>
<!-- Generator: Adobe Illustrator 22.0.1, SVG Export Plug-In . SVG Version: 6.00 Build 0)  -->
<svg version="1.1" id="Слой_1" xmlns="http://www.w3.org/2000/svg" xmlns:xlink="http://www.w3.org/1999/xlink" x="0px" y="0px"
	 viewBox="0 0 400 400" style="enable-background:new 0 0 400 400;" xml:space="preserve">
<style type="text/css">
	.st0{fill:#2A6877;}
	.st1{fill:#FFFFFF;}
	.st2{fill:#39C260;}
</style>
<g>
	<circle class="st0" cx="199.6" cy="200.7" r="189.5"/>
</g>
<g>
	<path class="st1" d="M132.5,268.6c-15.6,0-29.3-3.4-41-10.3C79.9,251.5,70.8,242,64.1,230c-6.5-12.2-9.8-26.2-9.8-42.2
		c0-15.9,3.3-29.9,9.8-41.9c6.7-12.2,15.8-21.7,27.4-28.5c11.7-6.8,25.4-10.3,41-10.3c15.5,0,29.1,3.4,40.8,10.3
		c11.7,6.8,20.9,16.4,27.4,28.5c6.5,12,9.8,26,9.8,41.9c0,14.9-2.9,28.2-8.7,39.9c-5.8,11.6-13.8,20.8-24.1,27.7l36.1,38.8h-35.5
		l-24.3-28C147.1,267.8,140,268.6,132.5,268.6z M132.5,243c14.9,0,26.7-4.9,35.5-14.7c8.9-9.8,13.4-23.3,13.4-40.4
		s-4.5-30.6-13.4-40.4c-8.8-9.8-20.6-14.7-35.5-14.7s-26.8,4.9-35.7,14.7s-13.4,23.3-13.4,40.4s4.5,30.6,13.4,40.4
		C105.8,238.1,117.7,243,132.5,243z"/>
	<path class="st2" d="M244.1,278.8V122.7h100.8v23h-72.3v43.7H331v22.5h-58.4v66.9H244.1z"/>
</g>
</svg>
