<svg width="173" height="26" viewBox="0 0 173 26" fill="none" xmlns="http://www.w3.org/2000/svg">
<path d="M10.88 22.2973C8.78 22.2973 6.94 21.8373 5.36 20.9173C3.8 19.9973 2.57 18.7273 1.67 17.1073C0.79 15.4673 0.35 13.5773 0.35 11.4373C0.35 9.29726 0.79 7.41726 1.67 5.79725C2.57 4.15726 3.8 2.87726 5.36 1.95726C6.94 1.03726 8.78 0.577255 10.88 0.577255C12.96 0.577255 14.79 1.03726 16.37 1.95726C17.95 2.87726 19.18 4.15726 20.06 5.79725C20.94 7.41726 21.38 9.29726 21.38 11.4373C21.38 13.4373 20.99 15.2273 20.21 16.8073C19.43 18.3673 18.35 19.6073 16.97 20.5273L21.83 25.7473H17.06L13.76 21.9673C12.84 22.1873 11.88 22.2973 10.88 22.2973ZM10.88 18.8473C12.88 18.8473 14.47 18.1873 15.65 16.8673C16.85 15.5473 17.45 13.7373 17.45 11.4373C17.45 9.13725 16.85 7.32726 15.65 6.00726C14.47 4.68726 12.88 4.02726 10.88 4.02726C8.88 4.02726 7.28 4.68726 6.08 6.00726C4.88 7.32726 4.28 9.13725 4.28 11.4373C4.28 13.7373 4.88 15.5473 6.08 16.8673C7.28 18.1873 8.88 18.8473 10.88 18.8473ZM30.6448 22.2973C28.7848 22.2973 27.3448 21.7173 26.3248 20.5573C25.3248 19.3973 24.8248 17.6973 24.8248 15.4573V7.05726H28.6348V15.0973C28.6348 16.3773 28.8948 17.3573 29.4148 18.0373C29.9348 18.7173 30.7548 19.0573 31.8748 19.0573C32.9348 19.0573 33.8048 18.6773 34.4848 17.9173C35.1848 17.1573 35.5348 16.0973 35.5348 14.7373V7.05726H39.3748V21.9373H35.9848L35.6848 19.4173C35.2248 20.2973 34.5548 20.9973 33.6748 21.5173C32.8148 22.0373 31.8048 22.2973 30.6448 22.2973ZM45.5368 4.74726C44.8368 4.74726 44.2568 4.53726 43.7968 4.11725C43.3568 3.69726 43.1368 3.16726 43.1368 2.52726C43.1368 1.88726 43.3568 1.36725 43.7968 0.967254C44.2568 0.547255 44.8368 0.337255 45.5368 0.337255C46.2368 0.337255 46.8068 0.547255 47.2468 0.967254C47.7068 1.36725 47.9368 1.88726 47.9368 2.52726C47.9368 3.16726 47.7068 3.69726 47.2468 4.11725C46.8068 4.53726 46.2368 4.74726 45.5368 4.74726ZM43.6168 21.9373V7.05726H47.4568V21.9373H43.6168ZM58.9048 22.2973C57.3848 22.2973 56.0448 21.9673 54.8848 21.3073C53.7248 20.6473 52.8048 19.7273 52.1248 18.5473C51.4648 17.3673 51.1348 16.0173 51.1348 14.4973C51.1348 12.9773 51.4648 11.6273 52.1248 10.4473C52.8048 9.26726 53.7248 8.34725 54.8848 7.68726C56.0448 7.02726 57.3848 6.69726 58.9048 6.69726C60.8048 6.69726 62.4048 7.19726 63.7048 8.19725C65.0048 9.17726 65.8348 10.5373 66.1948 12.2773H62.1448C61.9448 11.5573 61.5448 10.9973 60.9448 10.5973C60.3648 10.1773 59.6748 9.96726 58.8748 9.96726C57.8148 9.96726 56.9148 10.3673 56.1748 11.1673C55.4348 11.9673 55.0648 13.0773 55.0648 14.4973C55.0648 15.9173 55.4348 17.0273 56.1748 17.8273C56.9148 18.6273 57.8148 19.0273 58.8748 19.0273C59.6748 19.0273 60.3648 18.8273 60.9448 18.4273C61.5448 18.0273 61.9448 17.4573 62.1448 16.7173H66.1948C65.8348 18.3973 65.0048 19.7473 63.7048 20.7673C62.4048 21.7873 60.8048 22.2973 58.9048 22.2973ZM69.7531 21.9373V0.337255H73.5931V13.0873L78.8731 7.05726H83.4331L77.3431 13.8373L84.4231 21.9373H79.6231L73.5931 14.4673V21.9373H69.7531Z" fill="white"/>
<path d="M87.0439 21.9373V0.937254H100.604V4.02726H90.8839V9.90726H98.7439V12.9373H90.8839V21.9373H87.0439ZM109.207 22.2973C107.347 22.2973 105.907 21.7173 104.887 20.5573C103.887 19.3973 103.387 17.6973 103.387 15.4573V7.05726H107.197V15.0973C107.197 16.3773 107.457 17.3573 107.977 18.0373C108.497 18.7173 109.317 19.0573 110.437 19.0573C111.497 19.0573 112.367 18.6773 113.047 17.9173C113.747 17.1573 114.097 16.0973 114.097 14.7373V7.05726H117.937V21.9373H114.547L114.247 19.4173C113.787 20.2973 113.117 20.9973 112.237 21.5173C111.377 22.0373 110.367 22.2973 109.207 22.2973ZM122.029 21.9373V7.05726H125.419L125.719 9.57725C126.179 8.69725 126.839 7.99726 127.699 7.47726C128.579 6.95726 129.609 6.69726 130.789 6.69726C132.629 6.69726 134.059 7.27726 135.079 8.43726C136.099 9.59726 136.609 11.2973 136.609 13.5373V21.9373H132.769V13.8973C132.769 12.6173 132.509 11.6373 131.989 10.9573C131.469 10.2773 130.659 9.93726 129.559 9.93726C128.479 9.93726 127.589 10.3173 126.889 11.0773C126.209 11.8373 125.869 12.8973 125.869 14.2573V21.9373H122.029ZM147.271 22.2973C145.871 22.2973 144.621 21.9573 143.521 21.2773C142.421 20.5973 141.551 19.6673 140.911 18.4873C140.271 17.3073 139.951 15.9673 139.951 14.4673C139.951 12.9673 140.271 11.6373 140.911 10.4773C141.551 9.29726 142.421 8.37726 143.521 7.71725C144.621 7.03726 145.871 6.69726 147.271 6.69726C148.391 6.69726 149.371 6.90726 150.211 7.32726C151.051 7.74726 151.731 8.33726 152.251 9.09725V0.337255H156.091V21.9373H152.671L152.251 19.8073C151.771 20.4673 151.131 21.0473 150.331 21.5473C149.551 22.0473 148.531 22.2973 147.271 22.2973ZM148.081 18.9373C149.321 18.9373 150.331 18.5273 151.111 17.7073C151.911 16.8673 152.311 15.7973 152.311 14.4973C152.311 13.1973 151.911 12.1373 151.111 11.3173C150.331 10.4773 149.321 10.0573 148.081 10.0573C146.861 10.0573 145.851 10.4673 145.051 11.2873C144.251 12.1073 143.851 13.1673 143.851 14.4673C143.851 15.7673 144.251 16.8373 145.051 17.6773C145.851 18.5173 146.861 18.9373 148.081 18.9373ZM166.302 22.2973C164.982 22.2973 163.822 22.0873 162.822 21.6673C161.822 21.2273 161.022 20.6273 160.422 19.8673C159.822 19.1073 159.462 18.2273 159.342 17.2273H163.212C163.332 17.8073 163.652 18.3073 164.172 18.7273C164.712 19.1273 165.402 19.3273 166.242 19.3273C167.082 19.3273 167.692 19.1573 168.072 18.8173C168.472 18.4773 168.672 18.0873 168.672 17.6473C168.672 17.0073 168.392 16.5773 167.832 16.3573C167.272 16.1173 166.492 15.8873 165.492 15.6673C164.852 15.5273 164.202 15.3573 163.542 15.1573C162.882 14.9573 162.272 14.7073 161.712 14.4073C161.172 14.0873 160.732 13.6873 160.392 13.2073C160.052 12.7073 159.882 12.0973 159.882 11.3773C159.882 10.0573 160.402 8.94726 161.442 8.04725C162.502 7.14726 163.982 6.69726 165.882 6.69726C167.642 6.69726 169.042 7.10726 170.082 7.92726C171.142 8.74726 171.772 9.87726 171.972 11.3173H168.342C168.122 10.2173 167.292 9.66726 165.852 9.66726C165.132 9.66726 164.572 9.80726 164.172 10.0873C163.792 10.3673 163.602 10.7173 163.602 11.1373C163.602 11.5773 163.892 11.9273 164.472 12.1873C165.052 12.4473 165.822 12.6873 166.782 12.9073C167.822 13.1473 168.772 13.4173 169.632 13.7173C170.512 13.9973 171.212 14.4273 171.732 15.0073C172.252 15.5673 172.512 16.3773 172.512 17.4373C172.532 18.3573 172.292 19.1873 171.792 19.9273C171.292 20.6673 170.572 21.2473 169.632 21.6673C168.692 22.0873 167.582 22.2973 166.302 22.2973Z" fill="#39C260"/>
</svg>
