<svg width="173" height="26" viewBox="0 0 173 26" fill="none" xmlns="http://www.w3.org/2000/svg">
<path d="M10.88 22.36C8.78 22.36 6.94 21.9 5.36 20.98C3.8 20.06 2.57 18.79 1.67 17.17C0.79 15.53 0.35 13.64 0.35 11.5C0.35 9.36 0.79 7.48 1.67 5.86C2.57 4.22 3.8 2.94 5.36 2.02C6.94 1.1 8.78 0.64 10.88 0.64C12.96 0.64 14.79 1.1 16.37 2.02C17.95 2.94 19.18 4.22 20.06 5.86C20.94 7.48 21.38 9.36 21.38 11.5C21.38 13.5 20.99 15.29 20.21 16.87C19.43 18.43 18.35 19.67 16.97 20.59L21.83 25.81H17.06L13.76 22.03C12.84 22.25 11.88 22.36 10.88 22.36ZM10.88 18.91C12.88 18.91 14.47 18.25 15.65 16.93C16.85 15.61 17.45 13.8 17.45 11.5C17.45 9.2 16.85 7.39 15.65 6.07C14.47 4.75 12.88 4.09 10.88 4.09C8.88 4.09 7.28 4.75 6.08 6.07C4.88 7.39 4.28 9.2 4.28 11.5C4.28 13.8 4.88 15.61 6.08 16.93C7.28 18.25 8.88 18.91 10.88 18.91ZM30.6448 22.36C28.7848 22.36 27.3448 21.78 26.3248 20.62C25.3248 19.46 24.8248 17.76 24.8248 15.52V7.12H28.6348V15.16C28.6348 16.44 28.8948 17.42 29.4148 18.1C29.9348 18.78 30.7548 19.12 31.8748 19.12C32.9348 19.12 33.8048 18.74 34.4848 17.98C35.1848 17.22 35.5348 16.16 35.5348 14.8V7.12H39.3748V22H35.9848L35.6848 19.48C35.2248 20.36 34.5548 21.06 33.6748 21.58C32.8148 22.1 31.8048 22.36 30.6448 22.36ZM45.5368 4.81C44.8368 4.81 44.2568 4.6 43.7968 4.18C43.3568 3.76 43.1368 3.23 43.1368 2.59C43.1368 1.95 43.3568 1.43 43.7968 1.03C44.2568 0.609999 44.8368 0.399999 45.5368 0.399999C46.2368 0.399999 46.8068 0.609999 47.2468 1.03C47.7068 1.43 47.9368 1.95 47.9368 2.59C47.9368 3.23 47.7068 3.76 47.2468 4.18C46.8068 4.6 46.2368 4.81 45.5368 4.81ZM43.6168 22V7.12H47.4568V22H43.6168ZM58.9048 22.36C57.3848 22.36 56.0448 22.03 54.8848 21.37C53.7248 20.71 52.8048 19.79 52.1248 18.61C51.4648 17.43 51.1348 16.08 51.1348 14.56C51.1348 13.04 51.4648 11.69 52.1248 10.51C52.8048 9.33 53.7248 8.41 54.8848 7.75C56.0448 7.09 57.3848 6.76 58.9048 6.76C60.8048 6.76 62.4048 7.26 63.7048 8.26C65.0048 9.24 65.8348 10.6 66.1948 12.34H62.1448C61.9448 11.62 61.5448 11.06 60.9448 10.66C60.3648 10.24 59.6748 10.03 58.8748 10.03C57.8148 10.03 56.9148 10.43 56.1748 11.23C55.4348 12.03 55.0648 13.14 55.0648 14.56C55.0648 15.98 55.4348 17.09 56.1748 17.89C56.9148 18.69 57.8148 19.09 58.8748 19.09C59.6748 19.09 60.3648 18.89 60.9448 18.49C61.5448 18.09 61.9448 17.52 62.1448 16.78H66.1948C65.8348 18.46 65.0048 19.81 63.7048 20.83C62.4048 21.85 60.8048 22.36 58.9048 22.36ZM69.7531 22V0.399999H73.5931V13.15L78.8731 7.12H83.4331L77.3431 13.9L84.4231 22H79.6231L73.5931 14.53V22H69.7531Z" fill="#1B424C"/>
<path d="M87.0439 22V0.999999H100.604V4.09H90.8839V9.97H98.7439V13H90.8839V22H87.0439ZM109.207 22.36C107.347 22.36 105.907 21.78 104.887 20.62C103.887 19.46 103.387 17.76 103.387 15.52V7.12H107.197V15.16C107.197 16.44 107.457 17.42 107.977 18.1C108.497 18.78 109.317 19.12 110.437 19.12C111.497 19.12 112.367 18.74 113.047 17.98C113.747 17.22 114.097 16.16 114.097 14.8V7.12H117.937V22H114.547L114.247 19.48C113.787 20.36 113.117 21.06 112.237 21.58C111.377 22.1 110.367 22.36 109.207 22.36ZM122.029 22V7.12H125.419L125.719 9.64C126.179 8.76 126.839 8.06 127.699 7.54C128.579 7.02 129.609 6.76 130.789 6.76C132.629 6.76 134.059 7.34 135.079 8.5C136.099 9.66 136.609 11.36 136.609 13.6V22H132.769V13.96C132.769 12.68 132.509 11.7 131.989 11.02C131.469 10.34 130.659 10 129.559 10C128.479 10 127.589 10.38 126.889 11.14C126.209 11.9 125.869 12.96 125.869 14.32V22H122.029ZM147.271 22.36C145.871 22.36 144.621 22.02 143.521 21.34C142.421 20.66 141.551 19.73 140.911 18.55C140.271 17.37 139.951 16.03 139.951 14.53C139.951 13.03 140.271 11.7 140.911 10.54C141.551 9.36 142.421 8.44 143.521 7.78C144.621 7.1 145.871 6.76 147.271 6.76C148.391 6.76 149.371 6.97 150.211 7.39C151.051 7.81 151.731 8.4 152.251 9.16V0.399999H156.091V22H152.671L152.251 19.87C151.771 20.53 151.131 21.11 150.331 21.61C149.551 22.11 148.531 22.36 147.271 22.36ZM148.081 19C149.321 19 150.331 18.59 151.111 17.77C151.911 16.93 152.311 15.86 152.311 14.56C152.311 13.26 151.911 12.2 151.111 11.38C150.331 10.54 149.321 10.12 148.081 10.12C146.861 10.12 145.851 10.53 145.051 11.35C144.251 12.17 143.851 13.23 143.851 14.53C143.851 15.83 144.251 16.9 145.051 17.74C145.851 18.58 146.861 19 148.081 19ZM166.302 22.36C164.982 22.36 163.822 22.15 162.822 21.73C161.822 21.29 161.022 20.69 160.422 19.93C159.822 19.17 159.462 18.29 159.342 17.29H163.212C163.332 17.87 163.652 18.37 164.172 18.79C164.712 19.19 165.402 19.39 166.242 19.39C167.082 19.39 167.692 19.22 168.072 18.88C168.472 18.54 168.672 18.15 168.672 17.71C168.672 17.07 168.392 16.64 167.832 16.42C167.272 16.18 166.492 15.95 165.492 15.73C164.852 15.59 164.202 15.42 163.542 15.22C162.882 15.02 162.272 14.77 161.712 14.47C161.172 14.15 160.732 13.75 160.392 13.27C160.052 12.77 159.882 12.16 159.882 11.44C159.882 10.12 160.402 9.01 161.442 8.11C162.502 7.21 163.982 6.76 165.882 6.76C167.642 6.76 169.042 7.17 170.082 7.99C171.142 8.81 171.772 9.94 171.972 11.38H168.342C168.122 10.28 167.292 9.73 165.852 9.73C165.132 9.73 164.572 9.87 164.172 10.15C163.792 10.43 163.602 10.78 163.602 11.2C163.602 11.64 163.892 11.99 164.472 12.25C165.052 12.51 165.822 12.75 166.782 12.97C167.822 13.21 168.772 13.48 169.632 13.78C170.512 14.06 171.212 14.49 171.732 15.07C172.252 15.63 172.512 16.44 172.512 17.5C172.532 18.42 172.292 19.25 171.792 19.99C171.292 20.73 170.572 21.31 169.632 21.73C168.692 22.15 167.582 22.36 166.302 22.36Z" fill="#39C260"/>
</svg>
